<?xml version="1.0" encoding="UTF-8" ?>
<!DOCTYPE svg PUBLIC "-//W3C//DTD SVG 1.1//EN" "http://www.w3.org/Graphics/SVG/1.1/DTD/svg11.dtd">
<svg width="538pt" height="520pt" viewBox="0 0 538 520" version="1.1" xmlns="http://www.w3.org/2000/svg">
<g id="#ffffffff">
</g>
<g id="#ff0101ff">
<path fill="#ff0101" opacity="1.00" d=" M 120.40 51.41 C 128.13 48.30 137.92 51.93 141.28 59.67 C 144.26 65.89 141.55 72.70 140.51 79.04 C 127.52 142.37 115.90 205.99 105.93 269.87 C 105.09 275.19 104.40 281.28 99.80 284.82 C 92.14 291.56 78.92 287.97 74.82 278.90 C 72.50 274.61 73.13 269.57 73.88 264.96 C 75.68 254.43 76.89 243.79 79.20 233.35 C 81.06 225.59 85.51 217.91 83.19 209.74 C 85.30 193.91 88.67 178.26 91.26 162.51 C 93.31 153.73 93.98 144.62 96.50 135.97 C 99.11 131.74 100.35 126.57 104.15 123.15 C 106.72 120.69 109.80 118.84 112.27 116.28 C 114.43 113.99 115.35 110.81 117.51 108.54 C 120.44 106.50 123.80 104.98 125.94 101.98 C 124.37 101.26 122.84 100.44 121.16 100.00 C 115.20 104.70 110.55 110.84 104.95 115.95 C 102.24 118.32 98.96 119.94 96.31 122.40 C 84.71 132.49 70.99 139.87 57.14 146.41 C 51.68 149.35 44.71 149.99 39.26 146.68 C 32.24 142.78 29.29 133.64 32.10 126.24 C 33.61 122.50 36.92 119.83 40.57 118.32 C 69.58 105.81 94.90 84.81 112.34 58.44 C 114.26 55.37 116.94 52.66 120.40 51.41 Z" />
<path fill="#ff0101" opacity="1.00" d=" M 414.42 53.63 C 427.20 51.82 440.18 56.10 450.84 63.02 C 458.73 67.97 465.31 74.68 471.45 81.60 C 480.21 92.18 488.23 103.73 492.51 116.91 C 495.11 124.01 496.52 131.48 497.42 138.98 C 498.19 153.52 498.17 168.20 495.70 182.60 C 492.75 199.26 487.87 215.73 479.60 230.57 C 469.12 249.70 453.15 266.05 433.54 275.80 C 421.95 281.62 409.10 285.58 396.00 284.83 C 378.11 286.09 360.88 276.76 349.44 263.45 C 335.96 248.26 330.09 227.87 328.56 207.98 C 326.18 171.73 337.86 135.24 358.66 105.70 C 363.85 98.33 369.70 91.43 376.21 85.19 C 379.06 82.62 379.63 78.63 381.54 75.46 C 388.12 63.37 401.03 55.68 414.42 53.63 M 409.65 90.46 C 408.86 95.05 409.29 100.23 406.01 103.98 C 403.22 108.28 397.32 108.31 394.25 112.25 C 373.20 135.23 361.05 165.95 359.79 197.01 C 359.90 212.93 363.08 229.87 373.61 242.38 C 379.73 249.75 389.24 254.77 399.00 253.50 C 417.16 251.54 433.19 240.39 444.29 226.29 C 456.70 210.29 463.07 190.31 465.21 170.35 C 465.85 162.74 466.86 155.10 466.18 147.45 C 469.22 144.21 471.74 140.53 473.68 136.54 C 474.97 133.42 478.78 133.07 481.10 131.00 C 482.45 129.51 481.29 127.54 480.94 125.91 C 476.25 129.60 471.98 133.81 467.93 138.18 C 466.31 135.14 466.63 130.15 462.95 128.84 C 460.03 119.74 454.62 111.72 448.73 104.29 C 442.75 96.95 435.77 89.93 426.84 86.35 C 421.07 84.21 413.40 85.15 409.65 90.46 M 449.14 233.14 C 445.33 237.78 439.67 240.66 436.78 246.10 C 437.75 247.09 438.73 248.08 439.72 249.06 C 444.90 244.14 451.27 240.44 455.59 234.64 C 457.28 232.33 457.96 229.12 460.69 227.73 C 463.20 226.39 465.11 224.27 466.49 221.80 C 465.38 221.14 464.39 220.21 463.12 219.91 C 458.18 223.98 453.30 228.23 449.14 233.14 Z" />
<path fill="#ff0101" opacity="1.00" d=" M 240.33 54.26 C 244.34 52.84 248.98 53.31 252.70 55.36 C 255.39 56.81 257.23 59.59 260.25 60.46 C 273.46 64.38 284.31 74.20 291.29 85.89 C 297.96 96.20 301.27 108.30 303.15 120.33 C 307.35 143.88 309.27 168.10 305.92 191.89 C 302.68 212.78 295.26 233.37 282.20 250.18 C 268.53 267.41 249.10 280.99 227.03 284.24 C 217.23 285.12 207.04 285.08 197.74 281.47 C 182.68 275.85 170.52 263.84 163.47 249.53 C 153.74 230.04 151.65 207.59 153.94 186.16 C 158.21 150.72 172.81 116.34 196.50 89.51 C 205.18 79.84 214.69 70.85 225.36 63.39 C 230.17 60.09 234.86 56.42 240.33 54.26 M 214.67 83.66 C 207.67 87.81 203.19 94.86 197.25 100.25 C 194.61 102.86 191.51 105.10 189.48 108.26 C 189.23 110.27 191.24 111.30 192.55 112.39 C 196.60 106.80 203.44 104.09 207.27 98.31 C 209.03 95.78 210.18 92.62 213.06 91.11 C 215.71 89.61 217.80 87.37 219.36 84.77 C 217.86 84.25 216.27 82.43 214.67 83.66 M 242.37 91.34 C 213.46 112.53 193.45 145.44 187.75 180.81 C 186.24 190.80 185.07 200.97 186.28 211.06 C 187.20 223.12 190.51 235.87 199.50 244.51 C 204.53 249.72 211.74 252.85 219.02 252.41 C 232.17 251.66 243.96 244.16 252.68 234.66 C 265.89 220.77 272.22 201.76 274.38 183.03 C 274.63 174.36 274.00 165.68 274.63 157.02 C 274.67 142.75 272.68 128.49 268.93 114.74 C 266.50 106.21 261.97 97.68 254.17 92.98 C 250.63 91.24 246.18 89.82 242.37 91.34 M 275.31 150.71 C 274.90 153.45 274.71 156.22 274.86 159.00 C 275.24 167.67 274.63 176.35 274.98 185.03 C 276.70 182.15 278.93 179.65 281.53 177.54 C 284.27 175.43 285.50 172.12 287.40 169.35 C 289.82 166.62 294.34 165.96 295.67 162.25 C 294.84 161.29 293.91 160.42 293.02 159.54 C 287.73 164.00 283.62 169.87 277.38 173.16 C 276.54 165.73 279.19 157.52 275.31 150.71 Z" />
<path fill="#ff0101" opacity="1.00" d=" M 396.00 311.84 C 404.69 311.31 413.41 311.64 422.09 310.94 C 422.43 311.01 423.12 311.15 423.46 311.22 C 430.55 315.12 438.61 311.26 446.13 312.87 C 439.32 320.79 431.33 327.59 424.36 335.37 C 421.24 339.11 417.03 341.69 412.59 343.58 C 403.40 344.04 394.20 344.63 384.99 344.64 C 380.31 344.53 375.72 345.64 371.05 345.55 C 364.42 345.50 357.86 346.89 351.23 346.67 C 349.37 345.99 347.55 345.25 345.73 344.52 C 346.01 339.50 351.33 338.25 354.19 335.04 C 355.41 333.54 354.02 331.84 353.46 330.41 C 348.91 333.83 344.92 337.89 341.20 342.17 C 338.77 345.04 335.16 346.35 331.85 347.88 C 332.41 347.98 333.54 348.19 334.10 348.30 C 282.12 353.38 230.13 362.68 181.20 381.43 C 142.93 396.05 106.58 416.56 76.04 444.05 C 73.49 446.27 70.56 448.57 67.03 448.70 C 63.57 448.74 59.76 449.24 56.66 447.35 C 51.06 444.01 46.60 437.74 47.59 430.96 C 48.24 423.90 54.47 419.63 59.39 415.41 C 103.92 377.11 158.37 351.81 214.74 336.45 C 266.67 322.27 320.41 316.07 374.02 312.95 C 381.32 312.04 388.71 312.82 396.00 311.84 M 164.11 364.11 C 159.93 367.22 156.78 371.45 153.03 375.04 C 148.32 380.10 142.70 384.34 138.80 390.11 C 139.81 391.13 140.83 392.14 141.84 393.16 C 146.51 388.69 152.19 385.35 156.34 380.32 C 158.45 378.02 159.68 375.07 161.64 372.66 C 164.62 370.74 168.02 369.28 170.08 366.22 C 168.23 365.37 166.28 362.62 164.11 364.11 Z" />
<path fill="#ff0101" opacity="1.00" d=" M 370.80 385.49 C 377.49 384.56 384.27 384.52 391.01 384.19 C 397.20 383.59 404.22 382.40 409.57 386.45 C 418.29 392.09 418.91 406.32 410.60 412.62 C 404.59 417.70 396.24 416.14 389.01 416.57 C 350.86 419.03 312.86 424.52 275.76 433.82 C 227.21 445.71 180.28 463.94 136.07 487.21 C 131.74 489.21 126.51 489.11 122.19 487.16 C 114.93 483.99 110.65 475.02 113.19 467.44 C 114.41 463.62 117.30 460.52 120.80 458.67 C 184.55 424.96 253.90 401.78 325.21 390.90 C 337.34 388.94 349.57 387.25 361.82 386.50 C 364.59 386.82 367.35 387.28 370.11 387.73 C 368.82 390.68 366.83 393.22 364.61 395.53 C 365.82 395.99 367.06 397.34 368.39 396.42 C 373.46 393.65 377.77 389.71 382.08 385.91 C 378.32 385.73 374.56 385.57 370.80 385.49 Z" />
</g>
<g id="#ff1110ff">
<path fill="#ff1110" opacity="1.00" d=" M 214.67 83.66 C 216.27 82.43 217.86 84.25 219.36 84.77 C 217.80 87.37 215.71 89.61 213.06 91.11 C 210.18 92.62 209.03 95.78 207.27 98.31 C 203.44 104.09 196.60 106.80 192.55 112.39 C 191.24 111.30 189.23 110.27 189.48 108.26 C 191.51 105.10 194.61 102.86 197.25 100.25 C 203.19 94.86 207.67 87.81 214.67 83.66 Z" />
<path fill="#ff1110" opacity="1.00" d=" M 164.11 364.11 C 166.28 362.62 168.23 365.37 170.08 366.22 C 168.02 369.28 164.62 370.74 161.64 372.66 C 159.68 375.07 158.45 378.02 156.34 380.32 C 152.19 385.35 146.51 388.69 141.84 393.16 C 140.83 392.14 139.81 391.13 138.80 390.11 C 142.70 384.34 148.32 380.10 153.03 375.04 C 156.78 371.45 159.93 367.22 164.11 364.11 Z" />
</g>
<g id="#ff1311ff">
<path fill="#ff1311" opacity="1.00" d=" M 104.95 115.95 C 110.55 110.84 115.20 104.70 121.16 100.00 C 122.84 100.44 124.37 101.26 125.94 101.98 C 123.80 104.98 120.44 106.50 117.51 108.54 C 115.35 110.81 114.43 113.99 112.27 116.28 C 109.80 118.84 106.72 120.69 104.15 123.15 C 100.35 126.57 99.11 131.74 96.50 135.97 C 96.84 131.01 98.42 126.23 98.89 121.28 C 98.03 121.65 97.17 122.02 96.31 122.40 C 98.96 119.94 102.24 118.32 104.95 115.95 Z" />
<path fill="#ff1311" opacity="1.00" d=" M 341.20 342.17 C 344.92 337.89 348.91 333.83 353.46 330.41 C 354.02 331.84 355.41 333.54 354.19 335.04 C 351.33 338.25 346.01 339.50 345.73 344.52 C 347.55 345.25 349.37 345.99 351.23 346.67 C 345.58 347.62 339.80 347.92 334.10 348.30 C 333.54 348.19 332.41 347.98 331.85 347.88 C 335.16 346.35 338.77 345.04 341.20 342.17 Z" />
</g>
<g id="#ff1514ff">
<path fill="#ff1514" opacity="1.00" d=" M 467.93 138.18 C 471.98 133.81 476.25 129.60 480.94 125.91 C 481.29 127.54 482.45 129.51 481.10 131.00 C 478.78 133.07 474.97 133.42 473.68 136.54 C 471.74 140.53 469.22 144.21 466.18 147.45 C 465.66 141.16 464.59 134.93 462.95 128.84 C 466.63 130.15 466.31 135.14 467.93 138.18 Z" />
</g>
<g id="#ff1214ff">
<path fill="#ff1214" opacity="1.00" d=" M 275.31 150.71 C 279.19 157.52 276.54 165.73 277.38 173.16 C 283.62 169.87 287.73 164.00 293.02 159.54 C 293.91 160.42 294.84 161.29 295.67 162.25 C 294.34 165.96 289.82 166.62 287.40 169.35 C 285.50 172.12 284.27 175.43 281.53 177.54 C 278.93 179.65 276.70 182.15 274.98 185.03 C 274.63 176.35 275.24 167.67 274.86 159.00 C 274.71 156.22 274.90 153.45 275.31 150.71 Z" />
</g>
<g id="#f34c4dff">
<path fill="#f34c4d" opacity="1.00" d=" M 79.20 233.35 C 79.69 225.39 80.99 217.40 83.19 209.74 C 85.51 217.91 81.06 225.59 79.20 233.35 Z" />
</g>
<g id="#ff1312ff">
<path fill="#ff1312" opacity="1.00" d=" M 449.14 233.14 C 453.30 228.23 458.18 223.98 463.12 219.91 C 464.39 220.21 465.38 221.14 466.49 221.80 C 465.11 224.27 463.20 226.39 460.69 227.73 C 457.96 229.12 457.28 232.33 455.59 234.64 C 451.27 240.44 444.90 244.14 439.72 249.06 C 438.73 248.08 437.75 247.09 436.78 246.10 C 439.67 240.66 445.33 237.78 449.14 233.14 Z" />
</g>
<g id="#ff1212ff">
<path fill="#ff1212" opacity="1.00" d=" M 423.46 311.22 C 432.08 310.00 440.87 310.70 449.56 310.23 C 448.90 313.01 448.61 315.90 447.59 318.59 C 445.90 320.28 443.71 321.33 442.00 322.98 C 440.10 325.18 439.13 328.01 437.18 330.17 C 434.31 333.29 430.51 335.49 428.11 339.05 C 428.23 339.36 428.49 339.98 428.62 340.29 C 441.88 342.38 455.59 337.61 468.70 341.41 C 465.34 342.95 461.56 342.20 458.00 342.44 C 442.85 342.52 427.74 343.61 412.59 343.58 C 417.03 341.69 421.24 339.11 424.36 335.37 C 431.33 327.59 439.32 320.79 446.13 312.87 C 438.61 311.26 430.55 315.12 423.46 311.22 Z" />
</g>
<g id="#ff0203ff">
<path fill="#ff0203" opacity="1.00" d=" M 449.56 310.23 C 456.36 310.31 463.19 309.83 469.97 310.41 C 479.26 312.43 484.06 323.91 480.24 332.32 C 478.26 336.89 473.99 341.51 468.70 341.41 C 455.59 337.61 441.88 342.38 428.62 340.29 C 428.49 339.98 428.23 339.36 428.11 339.05 C 430.51 335.49 434.31 333.29 437.18 330.17 C 439.13 328.01 440.10 325.18 442.00 322.98 C 443.71 321.33 445.90 320.28 447.59 318.59 C 448.61 315.90 448.90 313.01 449.56 310.23 Z" />
</g>
<g id="#fd1416ff">
<path fill="#fd1416" opacity="1.00" d=" M 361.82 386.50 C 364.76 385.86 367.77 385.46 370.80 385.49 C 374.56 385.57 378.32 385.73 382.08 385.91 C 377.77 389.71 373.46 393.65 368.39 396.42 C 367.06 397.34 365.82 395.99 364.61 395.53 C 366.83 393.22 368.82 390.68 370.11 387.73 C 367.35 387.28 364.59 386.82 361.82 386.50 Z" />
</g>
</svg>
